<?xml version="1.0" encoding="iso-8859-1"?>
<!-- Generator: Adobe Illustrator 19.0.0, SVG Export Plug-In . SVG Version: 6.00 Build 0)  -->
<svg version="1.1" id="Layer_1" xmlns="http://www.w3.org/2000/svg" xmlns:xlink="http://www.w3.org/1999/xlink" x="0px" y="0px"
	 viewBox="0 0 512 512" style="enable-background:new 0 0 512 512;" xml:space="preserve">
<g>
	<path style="fill:#38454F;" d="M185.379,384v17.655h141.241V384H476.69V101.517c0-9.754-7.901-17.655-17.655-17.655H52.966
		c-9.754,0-17.655,7.901-17.655,17.655V384H185.379z"/>
	<path style="fill:#B0B6BB;" d="M326.621,384v17.655H185.379V384H0v26.483c0,9.754,7.901,17.655,17.655,17.655h476.69
		c9.754,0,17.655-7.901,17.655-17.655V384H326.621z"/>
	<polygon style="fill:#546A79;" points="52.966,366.345 459.034,366.345 459.034,101.517 52.966,101.517 	"/>
	<g>
		<path style="fill:#EA6148;" d="M432.552,348.69H300.138c-4.882,0-8.828-3.955-8.828-8.828s3.946-8.828,8.828-8.828h132.414
			c4.882,0,8.828,3.955,8.828,8.828S437.433,348.69,432.552,348.69"/>
		<path style="fill:#EA6148;" d="M167.724,295.724H79.448c-4.882,0-8.828-3.955-8.828-8.828s3.946-8.828,8.828-8.828h88.276
			c4.882,0,8.828,3.955,8.828,8.828S172.606,295.724,167.724,295.724"/>
		<path style="fill:#EA6148;" d="M388.414,295.724H256c-4.882,0-8.828-3.955-8.828-8.828s3.946-8.828,8.828-8.828h132.414
			c4.882,0,8.828,3.955,8.828,8.828S393.295,295.724,388.414,295.724"/>
		<path style="fill:#EA6148;" d="M211.862,295.724c-2.295,0-4.599-0.971-6.268-2.56c-1.598-1.677-2.56-3.972-2.56-6.268
			c0-1.148,0.265-2.295,0.706-3.354c0.441-1.148,1.059-2.119,1.854-2.913c3.266-3.266,9.181-3.266,12.535,0
			c1.589,1.677,2.56,3.972,2.56,6.268s-0.971,4.59-2.56,6.268c-0.441,0.353-0.892,0.794-1.412,1.059
			c-0.441,0.353-0.98,0.618-1.501,0.794c-0.538,0.265-1.059,0.441-1.686,0.53C213.01,295.636,212.392,295.724,211.862,295.724"/>
		<path style="fill:#EA6148;" d="M256,348.69H123.586c-4.882,0-8.828-3.955-8.828-8.828s3.946-8.828,8.828-8.828H256
			c4.882,0,8.828,3.955,8.828,8.828S260.882,348.69,256,348.69"/>
		<path style="fill:#EA6148;" d="M79.448,348.69c-1.148,0-2.295-0.265-3.354-0.706c-1.059-0.441-2.03-1.059-2.913-1.854
			c-1.598-1.677-2.56-3.884-2.56-6.268c0-1.148,0.265-2.295,0.706-3.354c0.441-1.148,1.059-2.03,1.854-2.913
			c2.119-2.03,5.12-2.913,7.936-2.383c0.627,0.088,1.148,0.265,1.686,0.53c0.521,0.177,1.059,0.441,1.501,0.794
			c0.521,0.353,0.971,0.706,1.412,1.059c0.794,0.883,1.412,1.766,1.854,2.913c0.441,1.059,0.706,2.207,0.706,3.354
			c0,2.383-0.971,4.59-2.56,6.268c-0.441,0.353-0.892,0.706-1.412,1.059c-0.441,0.353-0.98,0.618-1.501,0.794
			c-0.538,0.265-1.059,0.441-1.686,0.53C80.596,348.601,79.978,348.69,79.448,348.69"/>
		<path style="fill:#EA6148;" d="M432.552,295.724c-0.538,0-1.148-0.088-1.677-0.177c-0.618-0.088-1.148-0.265-1.677-0.53
			c-0.53-0.177-1.059-0.441-1.598-0.794c-0.433-0.353-0.874-0.706-1.315-1.059c-1.598-1.677-2.56-3.972-2.56-6.268
			s0.962-4.59,2.56-6.268l1.315-1.059c0.539-0.353,1.068-0.618,1.598-0.794c0.53-0.265,1.059-0.441,1.677-0.53
			c2.825-0.618,5.906,0.353,7.945,2.383c0.353,0.441,0.706,0.883,1.059,1.412c0.353,0.441,0.609,0.971,0.794,1.501
			c0.265,0.53,0.441,1.059,0.521,1.677c0.097,0.53,0.185,1.148,0.185,1.677c0,0.53-0.088,1.148-0.185,1.766
			c-0.079,0.53-0.256,1.059-0.521,1.589c-0.185,0.53-0.441,1.059-0.794,1.589c-0.353,0.441-0.706,0.883-1.059,1.324
			c-0.441,0.353-0.892,0.706-1.324,1.059c-0.53,0.353-1.068,0.618-1.589,0.794c-0.538,0.265-1.059,0.441-1.686,0.53
			C433.699,295.636,433.081,295.724,432.552,295.724"/>
		<path style="fill:#EA6148;" d="M432.552,189.793H300.138c-4.882,0-8.828-3.955-8.828-8.828s3.946-8.828,8.828-8.828h132.414
			c4.882,0,8.828,3.955,8.828,8.828S437.433,189.793,432.552,189.793"/>
		<path style="fill:#EA6148;" d="M432.552,242.759h-88.276c-4.882,0-8.828-3.955-8.828-8.828c0-4.873,3.946-8.828,8.828-8.828
			h88.276c4.882,0,8.828,3.955,8.828,8.828C441.379,238.804,437.433,242.759,432.552,242.759"/>
		<path style="fill:#EA6148;" d="M273.655,242.759H256c-4.882,0-8.828-3.955-8.828-8.828c0-4.873,3.946-8.828,8.828-8.828h17.655
			c4.882,0,8.828,3.955,8.828,8.828C282.483,238.804,278.537,242.759,273.655,242.759"/>
		<path style="fill:#EA6148;" d="M388.414,136.828H256c-4.882,0-8.828-3.955-8.828-8.828c0-4.873,3.946-8.828,8.828-8.828h132.414
			c4.882,0,8.828,3.955,8.828,8.828C397.241,132.873,393.295,136.828,388.414,136.828"/>
		<path style="fill:#EA6148;" d="M432.552,136.828c-0.538,0-1.148-0.088-1.677-0.177c-0.618-0.088-1.148-0.265-1.677-0.53
			c-0.53-0.177-1.059-0.441-1.598-0.794c-0.433-0.353-0.874-0.706-1.315-1.059c-1.598-1.677-2.56-3.972-2.56-6.268
			c0-2.295,0.962-4.59,2.56-6.268l1.315-1.059c0.539-0.353,1.068-0.618,1.598-0.794c0.53-0.265,1.059-0.441,1.677-0.53
			c2.825-0.618,5.906,0.353,7.945,2.383c0.353,0.441,0.706,0.883,1.059,1.412c0.353,0.441,0.609,0.971,0.794,1.501
			c0.265,0.53,0.441,1.059,0.521,1.677c0.097,0.53,0.185,1.148,0.185,1.677c0,0.53-0.088,1.148-0.185,1.766
			c-0.079,0.53-0.256,1.059-0.521,1.589c-0.185,0.53-0.441,1.059-0.794,1.589c-0.353,0.441-0.706,0.883-1.059,1.324
			c-0.441,0.353-0.892,0.706-1.324,1.059c-0.53,0.353-1.068,0.618-1.589,0.794c-0.538,0.265-1.059,0.441-1.686,0.53
			C433.699,136.739,433.081,136.828,432.552,136.828"/>
		<path style="fill:#EA6148;" d="M264.828,189.793c-2.392,0-4.599-0.971-6.268-2.56c-1.598-1.677-2.56-3.884-2.56-6.268
			c0-2.295,0.962-4.59,2.56-6.268c2.03-2.03,5.12-3.001,7.936-2.383c0.627,0.088,1.148,0.265,1.686,0.53
			c0.521,0.177,1.059,0.441,1.501,0.794c0.521,0.265,0.971,0.706,1.324,1.059c1.677,1.677,2.648,3.972,2.648,6.268
			c0,2.383-0.971,4.59-2.648,6.268C269.418,188.822,267.211,189.793,264.828,189.793"/>
		<path style="fill:#EA6148;" d="M308.966,242.759c-0.618,0-1.148-0.088-1.766-0.177c-0.53-0.088-1.059-0.265-1.589-0.53
			c-0.53-0.177-1.059-0.441-1.598-0.794c-0.433-0.353-0.874-0.706-1.315-1.059c-1.598-1.677-2.56-3.884-2.56-6.268
			c0-2.295,0.962-4.59,2.56-6.268c3.266-3.266,9.269-3.266,12.535,0c1.589,1.677,2.56,3.972,2.56,6.268
			c0,0.618-0.088,1.148-0.185,1.766c-0.079,0.53-0.256,1.059-0.521,1.589c-0.185,0.53-0.441,1.059-0.794,1.589
			c-0.353,0.441-0.706,0.883-1.059,1.324C313.556,241.788,311.261,242.759,308.966,242.759"/>
	</g>
	<polygon style="fill:#ECBA16;" points="79.448,242.759 203.034,242.759 203.034,119.172 79.448,119.172 	"/>
</g>
<g>
</g>
<g>
</g>
<g>
</g>
<g>
</g>
<g>
</g>
<g>
</g>
<g>
</g>
<g>
</g>
<g>
</g>
<g>
</g>
<g>
</g>
<g>
</g>
<g>
</g>
<g>
</g>
<g>
</g>
</svg>
