<?xml version="1.0" encoding="iso-8859-1"?>
<!-- Generator: Adobe Illustrator 19.0.0, SVG Export Plug-In . SVG Version: 6.00 Build 0)  -->
<svg version="1.1" id="Layer_1" xmlns="http://www.w3.org/2000/svg" xmlns:xlink="http://www.w3.org/1999/xlink" x="0px" y="0px"
	 viewBox="0 0 509.346 509.346" style="enable-background:new 0 0 509.346 509.346;" xml:space="preserve">
<g>
	<g>
		<path style="fill:#5D647F;" d="M398.453,210.645c-0.008-2.281-0.984-4.453-2.688-5.969c-1.711-1.516-4-2.223-6.25-1.961
			l-271.781,32c-4.023,0.473-7.063,3.891-7.063,7.945v72c0,31.574,90.516,40,144,40s144-8.426,144-40c0,0,0-0.012,0-0.016
			L398.453,210.645z"/>
	</g>
	<g>
		<path style="fill:#68748D;" d="M398.453,234.66h-144v119.999c0.072,0,0.147,0.001,0.219,0.001c52.085,0,139.253-8,143.781-37.578
			V234.66z"/>
	</g>
	<g>
		<path style="fill:#74829C;" d="M493.125,166.473L288.398,96.281c-21.75-7.461-45.703-7.461-67.453,0L16.227,166.473
			C6.375,169.848,0,178.758,0,189.176c0,10.414,6.375,19.324,16.227,22.699l204.719,70.191c10.875,3.73,22.297,5.594,33.727,5.594
			c11.43,0,22.852-1.863,33.727-5.594l204.727-70.191c9.852-3.375,16.219-12.285,16.219-22.699
			C509.344,178.758,502.977,169.848,493.125,166.473z"/>
	</g>
	<g>
		<g>
			<path style="fill:#5C546A;" d="M406.453,362.66c-4.422,0-8-3.582-8-8V250.129c0-3.418-2.172-6.461-5.406-7.57L251.86,194.153
				c-4.18-1.434-6.406-5.98-4.977-10.16c1.438-4.18,5.977-6.418,10.164-4.973l141.187,48.406
				c9.703,3.328,16.219,12.449,16.219,22.703V354.66C414.453,359.078,410.875,362.66,406.453,362.66z"/>
		</g>
	</g>
	<g>
		<path style="fill:#FFE671;" d="M414.453,418.66h-16c-4.418,0-8-3.582-8-8v-48c0-8.837,7.163-16,16-16l0,0c8.837,0,16,7.163,16,16
			v48C422.453,415.078,418.871,418.66,414.453,418.66z"/>
	</g>
	<g>
		<path style="fill:#5D647F;" d="M254.672,322.66c58.042,0,116.569-8.797,143.962-25.802l-0.046-21.896
			c-0.885,10.94-51.563,31.698-143.916,31.698c-93.172,0-144-21.141-144-32v22.174C138.048,313.854,196.603,322.66,254.672,322.66z"
			/>
	</g>
	<g>
		<g>
			<path style="fill:#5C546A;" d="M398.453,296.96c0.057-0.035,0.125-0.067,0.181-0.102l-0.046-21.896
				c-0.01,0.124-0.112,0.265-0.135,0.391V296.96z"/>
		</g>
		<g>
			<path style="fill:#5C546A;" d="M254.453,306.657c-93.028-0.034-143.781-21.146-143.781-31.997v22.174
				c27.342,16.998,85.783,25.801,143.781,25.824V306.657z"/>
		</g>
	</g>
	<g>
		<ellipse style="fill:#5D647F;" cx="254.672" cy="186.66" rx="32" ry="16"/>
	</g>
	<g>
		<path style="fill:#FFCD00;" d="M390.453,362.66v48c0,4.418,3.582,8,8,8h8v-72C397.617,346.66,390.453,353.823,390.453,362.66z"/>
	</g>
</g>
<g>
</g>
<g>
</g>
<g>
</g>
<g>
</g>
<g>
</g>
<g>
</g>
<g>
</g>
<g>
</g>
<g>
</g>
<g>
</g>
<g>
</g>
<g>
</g>
<g>
</g>
<g>
</g>
<g>
</g>
</svg>
