<?xml version="1.0" encoding="iso-8859-1"?>
<!-- Generator: Adobe Illustrator 19.0.0, SVG Export Plug-In . SVG Version: 6.00 Build 0)  -->
<svg version="1.1" id="Layer_1" xmlns="http://www.w3.org/2000/svg" xmlns:xlink="http://www.w3.org/1999/xlink" x="0px" y="0px"
	 viewBox="0 0 512 512" style="enable-background:new 0 0 512 512;" xml:space="preserve">
<path style="fill:#FFFFFF;" d="M369.464,186.951c-0.458-0.459-31.797-31.797-31.797-31.797l-47.605,47.604l31.846,31.846
	l-64.051,64.05l-31.846-31.845l-47.585,47.585c0,0,31.337,31.337,31.797,31.797c23.476,23.476,78.159,6.864,122.132-37.109
	C376.329,265.107,392.941,210.426,369.464,186.951z"/>
<g>
	<path style="fill:#AA6100;" d="M85.333,124.121H62.061H38.788c-12.853,0-23.273,10.42-23.273,23.273
		c0,12.853,10.42,23.273,23.273,23.273h23.273h23.273c12.853,0,23.273-10.42,23.273-23.273
		C108.606,134.541,98.186,124.121,85.333,124.121z"/>
	<path style="fill:#AA6100;" d="M85.333,232.727H62.061H38.788c-12.853,0-23.273,10.42-23.273,23.273
		c0,12.853,10.42,23.273,23.273,23.273h23.273h23.273c12.853,0,23.273-10.42,23.273-23.273
		C108.606,243.147,98.186,232.727,85.333,232.727z"/>
	<path style="fill:#AA6100;" d="M85.333,341.333H62.061H38.788c-12.853,0-23.273,10.42-23.273,23.273s10.42,23.273,23.273,23.273
		h23.273h23.273c12.853,0,23.273-10.42,23.273-23.273S98.186,341.333,85.333,341.333z"/>
</g>
<path style="fill:#ECB45C;" d="M473.212,0H279.273H162.909C107.301,0,62.061,45.241,62.061,100.848v23.273h23.273
	c12.853,0,23.273,10.42,23.273,23.273c0,12.853-10.42,23.273-23.273,23.273H62.061v62.061h23.273
	c12.853,0,23.273,10.42,23.273,23.273c0,12.853-10.42,23.273-23.273,23.273H62.061v62.061h23.273
	c12.853,0,23.273,10.42,23.273,23.273s-10.42,23.273-23.273,23.273H62.061v23.273C62.061,466.759,107.301,512,162.909,512h116.364
	h193.939c12.853,0,23.273-10.42,23.273-23.273V23.273C496.485,10.42,486.065,0,473.212,0z M332.355,309.08
	c-16.905,16.905-35.392,29.747-53.082,37.841c-28.321,12.96-54.599,13.717-69.05-0.732c-0.459-0.458-31.797-31.797-31.797-31.797
	l47.585-47.585l31.846,31.845l21.416-21.412l42.636-42.636l-31.846-31.846l47.605-47.604c0,0,31.339,31.338,31.797,31.797
	C392.941,210.426,376.329,265.107,332.355,309.08z"/>
<path style="fill:#FF9811;" d="M210.223,346.19c-0.459-0.458-31.797-31.797-31.797-31.797l47.585-47.585l31.846,31.845
	l21.416-21.412V0H162.909C107.301,0,62.061,45.241,62.061,100.848v23.273h23.273c12.853,0,23.273,10.42,23.273,23.273
	c0,12.853-10.42,23.273-23.273,23.273H62.061v62.061h23.273c12.853,0,23.273,10.42,23.273,23.273
	c0,12.853-10.42,23.273-23.273,23.273H62.061v62.061h23.273c12.853,0,23.273,10.42,23.273,23.273s-10.42,23.273-23.273,23.273
	H62.061v23.273C62.061,466.759,107.301,512,162.909,512h116.364V346.922C250.951,359.882,224.673,360.64,210.223,346.19z"/>
<path style="fill:#6A563D;" d="M369.464,186.951c-0.458-0.459-31.797-31.797-31.797-31.797l-47.605,47.604l31.846,31.846
	l-42.636,42.636l-21.416,21.414l-31.846-31.845l-47.585,47.585c0,0,31.338,31.337,31.797,31.797
	c14.449,14.449,40.729,13.692,69.05,0.732c17.69-8.094,36.175-20.936,53.082-37.841
	C376.329,265.107,392.941,210.426,369.464,186.951z"/>
<g>
</g>
<g>
</g>
<g>
</g>
<g>
</g>
<g>
</g>
<g>
</g>
<g>
</g>
<g>
</g>
<g>
</g>
<g>
</g>
<g>
</g>
<g>
</g>
<g>
</g>
<g>
</g>
<g>
</g>
</svg>
